<svg width="26" height="26" viewBox="0 0 26 26" fill="none" xmlns="http://www.w3.org/2000/svg">
<path d="M18.4166 10.8333V8.66667C18.4166 5.67512 15.9915 3.25 12.9999 3.25C10.0084 3.25 7.58325 5.67512 7.58325 8.66667V10.8333M12.9999 15.7083V17.875M9.53325 22.75H16.4666C18.2868 22.75 19.1968 22.75 19.8921 22.3958C20.5036 22.0842 21.0008 21.587 21.3124 20.9755C21.6666 20.2803 21.6666 19.3702 21.6666 17.55V16.0333C21.6666 14.2132 21.6666 13.3031 21.3124 12.6079C21.0008 11.9963 20.5036 11.4992 19.8921 11.1876C19.1968 10.8333 18.2868 10.8333 16.4666 10.8333H9.53325C7.71308 10.8333 6.803 10.8333 6.10778 11.1876C5.49626 11.4992 4.99907 11.9963 4.68748 12.6079C4.33325 13.3031 4.33325 14.2132 4.33325 16.0333V17.55C4.33325 19.3702 4.33325 20.2803 4.68748 20.9755C4.99907 21.587 5.49626 22.0842 6.10778 22.3958C6.803 22.75 7.71308 22.75 9.53325 22.75Z" stroke="white" stroke-opacity="0.19" stroke-width="1.5" stroke-linecap="round" stroke-linejoin="round"/>
</svg>
