<svg width="26" height="26" viewBox="0 0 26 26" fill="none" xmlns="http://www.w3.org/2000/svg">
<path d="M7.5835 10.8333V8.66667C7.5835 5.67512 10.0086 3.25 13.0002 3.25C15.2213 3.25 17.1303 4.58694 17.9661 6.5M13.0002 15.7083V17.875M9.5335 22.75H16.4668C18.287 22.75 19.1971 22.75 19.8923 22.3958C20.5038 22.0842 21.001 21.587 21.3126 20.9755C21.6668 20.2803 21.6668 19.3702 21.6668 17.55V16.0333C21.6668 14.2132 21.6668 13.3031 21.3126 12.6079C21.001 11.9963 20.5038 11.4992 19.8923 11.1876C19.1971 10.8333 18.287 10.8333 16.4668 10.8333H9.5335C7.71333 10.8333 6.80324 10.8333 6.10803 11.1876C5.4965 11.4992 4.99931 11.9963 4.68772 12.6079C4.3335 13.3031 4.3335 14.2132 4.3335 16.0333V17.55C4.3335 19.3702 4.3335 20.2803 4.68772 20.9755C4.99931 21.587 5.4965 22.0842 6.10803 22.3958C6.80324 22.75 7.71333 22.75 9.5335 22.75Z" stroke="#FFB81D" stroke-opacity="0.5" stroke-width="1.5" stroke-linecap="round" stroke-linejoin="round"/>
</svg>
